# xmcd CD database generated by RipIT
#
# Track frame offsets:
# 150
# 39403
# 158876
# 208602
# 246384
#
# Disc length: 3969 seconds
#
# Revision: 0
# Processed by: cddbd v1.5.2PL0 Copyright (c) Steve Scherf et al.
# Submitted via: RipIT 3.9.0 www.suwald.com/ripit/ripit.html on 2015-01-10 at 20:17
#
DISCID=3e0f7f05
DTITLE=Hans Christian Andersen - Die 30 besten Märchen - CD 3
DYEAR=2014
DGENRE=Alternative
TTITLE0=Die glückliche Familie
TTITLE1=Däumelinchen
TTITLE2=Der Schweinehirt
TTITLE3=Es gibt keinen Unterschied
TTITLE4=Das Gänseblümchen
EXTD=
EXTT0=
EXTT1=
EXTT2=
EXTT3=
EXTT4=
PLAYORDER=
